HIERARCHY
ROOT Hips
{
	OFFSET 0.00000 0.00000 0.00000
	CHANNELS 6 Xposition Yposition Zposition Zrotation Yrotation Xrotation 
	JOINT LHipJoint
	{
		OFFSET 0 0 0
		CHANNELS 3 Zrotation Yrotation Xrotation
		JOINT LeftUpLeg
		{
			OFFSET 1.44960 -1.75505 0.85172
			CHANNELS 3 Zrotation Yrotation Xrotation
			JOINT LeftLeg
			{
				OFFSET 2.40573 -6.60971 0.00000
				CHANNELS 3 Zrotation Yrotation Xrotation
				JOINT LeftFoot
				{
					OFFSET 2.58773 -7.10974 0.00000
					CHANNELS 3 Zrotation Yrotation Xrotation
					JOINT LeftToeBase
					{
						OFFSET 0.18252 -0.50147 1.77316
						CHANNELS 3 Zrotation Yrotation Xrotation
						End Site
						{
							OFFSET 0.00000 -0.00000 0.92990
						}
					}
				}
			}
		}
	}
	JOINT RHipJoint
	{
		OFFSET 0 0 0
		CHANNELS 3 Zrotation Yrotation Xrotation
		JOINT RightUpLeg
		{
			OFFSET -1.40744 -1.75505 0.85172
			CHANNELS 3 Zrotation Yrotation Xrotation
			JOINT RightLeg
			{
				OFFSET -2.43714 -6.69600 0.00000
				CHANNELS 3 Zrotation Yrotation Xrotation
				JOINT RightFoot
				{
					OFFSET -2.51650 -6.91404 0.00000
					CHANNELS 3 Zrotation Yrotation Xrotation
					JOINT RightToeBase
					{
						OFFSET -0.25383 -0.69740 1.96384
						CHANNELS 3 Zrotation Yrotation Xrotation
						End Site
						{
							OFFSET -0.00000 -0.00000 1.04244
						}
					}
				}
			}
		}
	}
	JOINT LowerBack
	{
		OFFSET 0 0 0
		CHANNELS 3 Zrotation Yrotation Xrotation
		JOINT Spine
		{
			OFFSET 0.00579 2.14458 -0.24367
			CHANNELS 3 Zrotation Yrotation Xrotation
			JOINT Spine1
			{
				OFFSET 0.05899 2.16316 -0.04515
				CHANNELS 3 Zrotation Yrotation Xrotation
				JOINT Neck
				{
					OFFSET 0 0 0
					CHANNELS 3 Zrotation Yrotation Xrotation
					JOINT Neck1
					{
						OFFSET -0.01650 1.59577 0.24841
						CHANNELS 3 Zrotation Yrotation Xrotation
						JOINT Head
						{
							OFFSET -0.01016 1.63072 -0.17782
							CHANNELS 3 Zrotation Yrotation Xrotation
							End Site
							{
								OFFSET -0.00250 1.64111 -0.08717
							}
						}
					}
				}
				JOINT LeftShoulder
				{
					OFFSET 0 0 0
					CHANNELS 3 Zrotation Yrotation Xrotation
					JOINT LeftArm
					{
						OFFSET 3.17745 0.95174 -0.45729
						CHANNELS 3 Zrotation Yrotation Xrotation
						JOINT LeftForeArm
						{
							OFFSET 4.93485 -0.00000 0.00000
							CHANNELS 3 Zrotation Yrotation Xrotation
							JOINT LeftHand
							{
								OFFSET 3.41719 -0.00000 -0.00000
								CHANNELS 3 Zrotation Yrotation Xrotation
								JOINT LeftFingerBase
								{
									OFFSET 0 0 0
									CHANNELS 3 Zrotation Yrotation Xrotation
									JOINT LeftHandIndex1
									{
										OFFSET 0.62410 -0.00000 -0.00000
										CHANNELS 3 Zrotation Yrotation Xrotation
										End Site
										{
											OFFSET 0.50317 -0.00000 -0.00000
										}
									}
								}
								JOINT LThumb
								{
									OFFSET 0 0 0
									CHANNELS 3 Zrotation Yrotation Xrotation
									End Site
									{
										OFFSET 0.51085 -0.00000 0.51085
									}
								}
							}
						}
					}
				}
				JOINT RightShoulder
				{
					OFFSET 0 0 0
					CHANNELS 3 Zrotation Yrotation Xrotation
					JOINT RightArm
					{
						OFFSET -2.87924 1.13038 -0.75204
						CHANNELS 3 Zrotation Yrotation Xrotation
						JOINT RightForeArm
						{
							OFFSET -5.22034 -0.00000 0.00000
							CHANNELS 3 Zrotation Yrotation Xrotation
							JOINT RightHand
							{
								OFFSET -3.41809 -0.00000 -0.00000
								CHANNELS 3 Zrotation Yrotation Xrotation
								JOINT RightFingerBase
								{
									OFFSET 0 0 0
									CHANNELS 3 Zrotation Yrotation Xrotation
									JOINT RightHandIndex1
									{
										OFFSET -0.77534 -0.00000 -0.00000
										CHANNELS 3 Zrotation Yrotation Xrotation
										End Site
										{
											OFFSET -0.62510 -0.00000 -0.00000
										}
									}
								}
								JOINT RThumb
								{
									OFFSET 0 0 0
									CHANNELS 3 Zrotation Yrotation Xrotation
									End Site
									{
										OFFSET -0.63464 -0.00000 0.63464
									}
								}
							}
						}
					}
				}
			}
		}
	}
}
MOTION
Frames: 12
Frame Time: 0.166667
0.00 0.00 0.00 0 0 0 0 0 0 -21 0 0 0 0 0 0 0 0 0 0 0 0 0 0 21 0 0 0 0 0 0 0 0 0 0 0 0 0 0 0 0 0 0 0 0 0 0 -16 0 0 21 0 0 11 0 0 0 -8 0 0 0 0 0 0 0 0 0 0 0 0 0 0 0 0 0 0 0 0 8 0 0 0 0 0 0 0 0 0 0 0 0 0 0 0 0 0
0.00 0.00 0.00 -3.6060 -2.6362 4.3149 0.0000 0.0000 0.0000 -14.5566 -8.5853 -18.2794 5.8268 14.2584 44.2826 1.2615 -6.1073 -20.0928 0.0471 -1.4003 -3.8509 0.0000 0.0000 0.0000 29.4297 5.3608 -6.5215 -2.1463 -9.1644 26.3108 -1.6353 -1.1722 -24.6239 -0.8245 -5.7934 16.1863 1.0775 -1.1414 4.0655 5.3679 -1.4096 1.0623 5.0132 -0.7114 -1.0770 -3.2189 -0.0874 -16.7172 -6.8245 2.0700 16.8787 -1.5050 0.0734 8.0654 -0.0000 0.0000 0.0000 -89.5603 8.0073 20.9889 20.4361 -31.1642 -5.7553 -0.0000 -0.0000 5.5334 1.9564 41.0355 1.2847 -7.1250 0.0000 -0.0000 -44.6646 65.6717 -24.3948 -0.0000 0.0000 0.0000 79.0749 -7.7489 -6.3763 -8.1235 13.7529 -0.9813 0.0000 0.0000 4.5548 -16.5845 20.9671 -6.0830 7.1250 -0.0000 -0.0000 7.6415 -8.3439 6.5114
0.00 0.00 0.00 -5.2270 -4.7514 4.0572 0.0000 0.0000 0.0000 -8.3058 -12.8505 -33.4809 2.9917 10.6816 31.2136 0.6207 -3.6041 -14.0943 0.0009 -0.1935 -0.5316 0.0000 0.0000 0.0000 31.3988 -2.7284 6.9858 -0.3534 -3.8195 10.5694 -0.6725 0.3622 -15.3770 -0.4461 -4.2851 11.8803 -1.7606 2.5109 0.9510 6.8061 3.4162 -0.4706 8.0176 1.7769 -1.5483 -4.0118 -1.0334 -17.7567 -9.5689 2.2339 22.7655 -2.4262 -0.4739 10.3808 0.0000 0.0000 0.0000 -91.7950 6.2417 24.1582 20.6506 -31.4182 -5.8667 -0.0000 -0.0000 6.8282 1.9024 41.3632 1.2574 -7.1250 0.0000 -0.0000 -45.2403 65.8852 -24.9803 0.0000 0.0000 0.0000 72.5557 16.7461 11.2634 -11.7160 19.3773 -2.0071 0.0000 -0.0000 -10.0784 -18.2422 21.4254 -6.8653 7.1250 -0.0000 -0.0000 6.6148 -7.6538 5.7141
0.00 0.00 0.00 -2.8859 -5.3538 6.4486 0.0000 0.0000 0.0000 -15.8411 -9.0228 -28.1302 1.6814 8.1682 23.2262 0.1583 -4.7697 -7.3373 0.1928 2.8280 7.8002 0.0000 0.0000 0.0000 22.3437 -4.5475 15.5396 -0.7851 -5.6565 15.7909 0.0180 -2.3880 -0.6353 -0.0020 -0.2921 0.8026 -2.7885 3.0660 -0.6325 4.8345 4.1517 -1.4538 6.5326 2.1663 -1.7084 -5.7384 -1.7338 -18.2118 -8.0429 1.3679 22.3181 -1.7100 -0.8291 10.2585 0.0000 0.0000 0.0000 -93.9859 9.0454 12.0378 14.8498 -23.9364 -3.1647 -0.0000 -0.0000 13.0748 -0.1724 40.7896 -0.1127 -7.1250 0.0000 -0.0000 -46.2952 64.8863 -24.6457 0.0000 0.0000 0.0000 69.4043 16.6301 8.9248 -15.8446 25.3096 -3.5793 0.0000 -0.0000 -14.9396 -20.4326 28.8331 -10.1853 7.1250 -0.0000 -0.0000 5.9683 0.3074 6.0330
0.00 0.00 0.00 -0.9670 -3.8626 6.1655 0.0000 0.0000 0.0000 -20.8943 -7.2608 -23.9047 1.4726 7.6683 21.7109 0.2424 -4.7738 -8.8694 0.0024 0.3159 0.8680 0.0000 0.0000 0.0000 19.6628 -3.6181 7.7084 -3.2367 -11.0687 32.5121 -0.0757 -6.0861 6.0907 -0.4829 -4.4559 12.3631 -4.0687 2.7915 -0.9495 4.3573 3.7855 -1.5273 6.7840 1.9953 -1.6098 -6.0167 -1.9704 -17.6582 -8.3227 1.2272 23.2516 -1.7996 -0.9806 10.5010 -0.0000 -0.0000 0.0000 -93.7541 8.2342 12.8833 14.8990 -24.0052 -3.1847 -0.0000 -0.0000 13.3653 -0.8422 41.9249 -0.5627 -7.1250 0.0000 -0.0000 -48.7195 65.4625 -26.8409 -0.0000 -0.0000 0.0000 70.2487 11.9705 5.8094 -14.8377 23.9196 -3.1599 0.0000 -0.0000 -12.8060 -19.7345 29.8140 -10.1127 7.1250 -0.0000 -0.0000 6.4932 1.1746 6.6676
0.00 0.00 0.00 1.0232 -1.2967 4.9692 0.0000 0.0000 0.0000 -24.8656 -5.9428 -18.9090 1.3608 7.3838 20.8575 0.2922 -5.9147 -9.8563 0.0410 1.3067 3.5932 0.0000 0.0000 0.0000 17.3695 -4.9472 -1.4198 -7.1261 -15.4371 49.3495 0.4053 -12.4732 1.2870 -2.3097 -9.4834 27.3194 -5.6764 1.7122 0.7074 3.7302 2.2627 -1.5305 7.0206 1.2721 -2.3597 -6.3808 -1.7809 -17.2800 -7.4957 1.3137 22.9650 -1.4184 -0.8534 10.3109 0.0000 -0.0000 0.0000 -92.4881 8.6485 15.6707 17.1794 -27.0937 -4.1687 -0.0000 -0.0000 9.2303 0.3259 41.3126 0.2151 -7.1250 0.0000 -0.0000 -46.6469 65.3898 -25.3942 0.0000 -0.0000 0.0000 72.2801 8.1507 3.0450 -13.6874 22.2860 -2.7084 0.0000 -0.0000 -9.9497 -19.2440 29.4739 -9.7463 7.1250 -0.0000 -0.0000 6.7372 0.7371 6.8708
0.00 0.00 0.00 3.0815 2.3973 2.7692 0.0000 0.0000 0.0000 -28.4854 -7.0766 -11.1915 1.6837 8.1736 23.2425 0.6985 -6.0516 -14.9021 0.2160 2.9917 8.2557 0.0000 0.0000 0.0000 15.4223 -1.1286 -13.6879 -9.9718 -17.3939 59.3940 -0.4376 -3.8125 -14.4806 -0.9152 -6.0956 17.0620 -7.5461 0.2441 3.1667 2.9794 0.0932 -0.4946 7.3739 0.1681 -2.3158 -6.6833 -1.4465 -16.4916 -6.5378 1.3575 20.8715 -0.9791 -0.6359 9.3938 0.0000 -0.0000 0.0000 -89.7086 5.4474 18.4427 20.5621 -31.3137 -5.8207 -0.0000 -0.0000 6.2608 2.5480 42.0647 1.7077 -7.1250 0.0000 -0.0000 -45.7874 66.5619 -26.0176 0.0000 -0.0000 0.0000 76.1842 2.6683 -2.1370 -11.1080 18.4535 -1.8099 0.0000 -0.0000 -5.7210 -19.4229 25.9030 -8.7567 7.1250 -0.0000 -0.0000 6.2493 -2.8743 5.9641
0.00 0.00 0.00 3.8444 9.0019 3.6696 0.0000 0.0000 0.0000 -29.4693 -7.5702 2.3259 1.1185 6.7185 18.8840 0.9612 -7.1653 -17.5112 0.4379 4.2461 11.7701 0.0000 0.0000 0.0000 8.4268 9.9924 -30.9887 -2.3548 -9.5689 27.5917 -0.1624 -8.4425 -14.7737 -0.4647 -4.3727 12.1277 -6.6982 -2.4112 6.6915 2.9153 -3.6288 0.0074 7.1532 -1.6863 -3.1407 -5.8904 -1.0392 -16.8200 -6.1438 1.3391 16.9671 -0.9313 -0.3789 8.0955 -0.0000 0.0000 0.0000 -88.1006 7.0300 22.7046 28.6234 -39.6839 -10.5194 -0.0000 -0.0000 0.7501 5.5203 42.1715 3.7124 -7.1250 0.0000 -0.0000 -43.1158 67.5417 -25.1766 -0.0000 0.0000 0.0000 81.6257 -13.1650 -18.5339 -6.4825 11.0645 -0.6285 0.0000 0.0000 8.6020 -16.8313 16.2975 -4.8524 7.1250 -0.0000 -0.0000 7.2920 -13.0951 5.4959
0.00 0.00 0.00 0.4300 2.7192 8.2720 0.0000 0.0000 0.0000 -23.7830 -2.8940 7.2454 2.3398 9.5407 27.5018 -0.0074 -5.1891 7.1637 0.7932 5.6850 15.8730 0.0000 0.0000 0.0000 19.1668 6.5863 -25.5749 -0.8685 -5.9421 16.6165 -0.0531 -3.7575 -7.2681 -0.2668 -3.3227 9.1785 1.5906 -1.5728 2.9726 3.0796 -1.9998 0.3277 2.3498 -1.0005 -1.2742 1.3504 1.0765 -16.2123 -8.7114 2.4589 11.3500 -2.7688 0.5298 6.2466 -0.0000 0.0000 0.0000 -89.0951 12.6778 20.8159 15.9339 -25.4310 -3.6175 -0.0000 -0.0000 11.2516 -1.5534 42.7478 -1.0546 -7.1250 0.0000 -0.0000 -50.7398 65.7896 -28.5713 -0.0000 0.0000 0.0000 84.3447 -24.7170 -28.8322 -6.6862 11.4016 -0.6682 0.0000 0.0000 14.1637 -16.1717 13.8037 -3.9580 7.1250 -0.0000 -0.0000 7.6907 -15.7165 5.3692
0.00 0.00 0.00 -1.2325 0.8209 7.5930 0.0000 0.0000 0.0000 -19.8188 -0.2927 -2.2367 5.7033 14.1346 43.7791 0.3536 -4.9714 14.1693 1.1838 6.9049 19.4340 0.0000 0.0000 0.0000 22.6277 8.4504 -19.9817 -0.7955 -5.6931 15.8966 0.0528 -5.5534 -6.0452 -1.3036 -7.2329 20.4073 2.8996 -1.4512 3.2489 3.7901 -1.7730 0.3902 2.3481 -0.8928 -1.3889 1.3957 1.6447 -16.2523 -9.2527 3.3415 11.8061 -2.8652 0.8983 6.4609 0.0000 0.0000 0.0000 -87.3916 13.0723 26.8301 18.7486 -29.1051 -4.9080 -0.0000 -0.0000 7.3416 -2.9700 42.3899 -2.0032 -7.1250 0.0000 -0.0000 -51.4164 65.1442 -28.3174 0.0000 0.0000 0.0000 82.7286 -20.3211 -24.6189 -6.7528 11.5117 -0.6815 0.0000 0.0000 14.5088 -17.8291 11.0649 -3.5322 7.1250 -0.0000 -0.0000 6.5212 -18.4145 4.1543
0.00 0.00 0.00 -3.2982 1.3227 5.2747 0.0000 0.0000 0.0000 -13.8584 -1.5961 -14.3608 10.4562 17.6585 61.0026 -0.2097 -8.4364 0.5333 2.6878 10.1717 29.5346 0.0000 0.0000 0.0000 26.8412 9.3906 -13.4612 -1.1206 -6.7245 18.9016 -0.0977 -7.1238 -12.1601 -1.5288 -7.8067 22.1284 4.0904 -1.3719 4.2977 4.4602 -1.5476 0.5625 2.3925 -0.7874 -1.8170 0.8528 1.3649 -15.3894 -9.3848 3.1166 12.0993 -2.8438 0.7665 6.3916 -0.0000 0.0000 0.0000 -86.3966 7.6622 27.9092 21.6045 -32.5271 -6.3719 -0.0000 -0.0000 6.2118 1.8704 42.5772 1.2658 -7.1250 0.0000 -0.0000 -47.3036 66.7047 -27.1859 -0.0000 0.0000 0.0000 82.0348 -10.6320 -27.2621 -5.5075 9.4382 -0.4550 0.0000 0.0000 22.8146 -19.6827 8.2086 -2.9237 7.1250 -0.0000 -0.0000 5.1919 -21.2841 2.9651
0.00 0.00 0.00 6.1306 11.5999 7.1832 0.0000 0.0000 0.0000 -27.4226 0.1589 10.6590 0.5892 4.9146 13.6652 -1.0759 -20.5461 -3.0211 0.0941 1.9780 5.4447 0.0000 0.0000 0.0000 8.9089 10.7469 -26.6078 -0.9831 -6.3112 17.6902 -0.1137 -8.6515 -14.2810 -0.0420 -1.3231 3.6381 -6.2188 -3.3622 3.3518 0.6749 -4.6770 0.9713 4.3179 -2.3516 -0.3188 0.3759 -2.5694 -11.0363 -9.7771 -2.3621 9.8552 -3.2665 -1.7697 4.6487 -0.0000 -0.0000 0.0000 -83.8969 8.0565 30.4538 24.9187 -36.1208 -8.2419 -0.0000 -0.0000 4.0479 2.5150 43.8416 1.7426 -7.1250 0.0000 -0.0000 -48.9933 67.7338 -29.4239 -0.0000 -0.0000 0.0000 88.2920 -21.5235 -40.3149 -6.2953 10.7538 -0.5931 0.0000 0.0000 20.3336 -12.4467 12.2526 -2.6819 7.1250 -0.0000 -0.0000 10.2661 -17.5610 6.8007
